<?xml version="1.0" encoding="UTF-8" standalone="no"?>
<!-- Created with Inkscape (http://www.inkscape.org/) -->

<svg
   width="512"
   height="512"
   viewBox="0 0 512 512"
   version="1.1"
   id="svg1"
   xml:space="preserve"
   xmlns:inkscape="http://www.inkscape.org/namespaces/inkscape"
   xmlns:sodipodi="http://sodipodi.sourceforge.net/DTD/sodipodi-0.dtd"
   xmlns="http://www.w3.org/2000/svg"
   xmlns:svg="http://www.w3.org/2000/svg"><sodipodi:namedview
     id="namedview1"
     pagecolor="#ffffff"
     bordercolor="#999999"
     borderopacity="1"
     inkscape:showpageshadow="2"
     inkscape:pageopacity="0"
     inkscape:pagecheckerboard="0"
     inkscape:deskcolor="#d1d1d1"
     inkscape:document-units="px"><inkscape:page
       x="0"
       y="0"
       width="512"
       height="512"
       id="page2"
       margin="0"
       bleed="0" /></sodipodi:namedview><defs
     id="defs1"><filter
       x="-0.066359905"
       y="-0.24764047"
       width="1.1327198"
       height="1.4952809"
       filterUnits="objectBoundingBox"
       id="filter-1"><feOffset
         dx="0"
         dy="0"
         in="SourceAlpha"
         result="shadowOffsetOuter1"
         id="feOffset1" /><feGaussianBlur
         stdDeviation="6.5"
         in="shadowOffsetOuter1"
         result="shadowBlurOuter1"
         id="feGaussianBlur1" /></filter><linearGradient
       x1="289.77637"
       y1="138.69225"
       x2="291.19351"
       y2="96.78817"
       id="linearGradient-2"
       gradientTransform="scale(0.61576809,1.623988)"
       gradientUnits="userSpaceOnUse"><stop
         stop-color="#FFEED7"
         offset="0%"
         id="stop1" /><stop
         stop-color="#BDBFC2"
         offset="100%"
         id="stop2" /></linearGradient><linearGradient
       x1="104.50885"
       y1="5.6628647"
       x2="100.18904"
       y2="51.918793"
       id="linearGradient-3"
       gradientTransform="scale(1.1465328,0.87219488)"
       gradientUnits="userSpaceOnUse"><stop
         stop-color="#FFFFFF"
         stop-opacity="0.8"
         offset="0%"
         id="stop3" /><stop
         stop-color="#FFFFFF"
         stop-opacity="0"
         offset="100%"
         id="stop4" /></linearGradient><linearGradient
       x1="121.74679"
       y1="53.924801"
       x2="120.81263"
       y2="35.182899"
       id="linearGradient-4"
       gradientTransform="scale(0.80696645,1.2392089)"
       gradientUnits="userSpaceOnUse"><stop
         stop-color="#FFEED7"
         offset="0%"
         id="stop5" /><stop
         stop-color="#BDBFC2"
         offset="100%"
         id="stop6" /></linearGradient><linearGradient
       x1="148.08321"
       y1="59.380508"
       x2="148.08276"
       y2="37.695564"
       id="linearGradient-5"
       gradientTransform="scale(0.88070839,1.1354496)"
       gradientUnits="userSpaceOnUse"><stop
         stop-color="#FFEED7"
         offset="0%"
         id="stop7" /><stop
         stop-color="#BDBFC2"
         offset="100%"
         id="stop8" /></linearGradient><linearGradient
       x1="155.58861"
       y1="41.362473"
       x2="154.90092"
       y2="49.220295"
       id="linearGradient-6"
       gradientTransform="scale(0.825109,1.2119611)"
       gradientUnits="userSpaceOnUse"><stop
         stop-color="#FFFFFF"
         stop-opacity="0.65"
         offset="0%"
         id="stop9" /><stop
         stop-color="#FFFFFF"
         stop-opacity="0"
         offset="100%"
         id="stop10" /></linearGradient><linearGradient
       x1="123.9845"
       y1="40.584888"
       x2="124.62241"
       y2="46.677853"
       id="linearGradient-7"
       gradientTransform="scale(0.78277271,1.27751)"
       gradientUnits="userSpaceOnUse"><stop
         stop-color="#FFFFFF"
         stop-opacity="0.65"
         offset="0%"
         id="stop11" /><stop
         stop-color="#FFFFFF"
         stop-opacity="0"
         offset="100%"
         id="stop12" /></linearGradient><linearGradient
       x1="148.01524"
       y1="182.55482"
       x2="148.01524"
       y2="114.0479"
       id="linearGradient-8"
       gradientTransform="scale(0.81292571,1.2301247)"
       gradientUnits="userSpaceOnUse"><stop
         stop-color="#FFEED7"
         offset="0%"
         id="stop13" /><stop
         stop-color="#BDBFC2"
         offset="100%"
         id="stop14" /></linearGradient><linearGradient
       x1="108.99021"
       y1="156.39291"
       x2="101.37504"
       y2="102.29666"
       id="linearGradient-9"
       gradientTransform="scale(0.6927423,1.4435382)"
       gradientUnits="userSpaceOnUse"><stop
         stop-color="#FFEED7"
         offset="0%"
         id="stop15" /><stop
         stop-color="#BDBFC2"
         offset="100%"
         id="stop16" /></linearGradient><linearGradient
       x1="104.4003"
       y1="144.85883"
       x2="104.69366"
       y2="204.60101"
       id="linearGradient-10"
       gradientTransform="scale(1.1078988,0.90260955)"
       gradientUnits="userSpaceOnUse"><stop
         stop-color="#FFFFFF"
         stop-opacity="0.8"
         offset="0%"
         id="stop17" /><stop
         stop-color="#FFFFFF"
         stop-opacity="0"
         offset="100%"
         id="stop18" /></linearGradient><linearGradient
       x1="102.8446"
       y1="110.18868"
       x2="103.19609"
       y2="134.55942"
       id="linearGradient-11"
       gradientTransform="scale(1.136719,0.87972488)"
       gradientUnits="userSpaceOnUse"><stop
         stop-color="#FFFFFF"
         stop-opacity="0.65"
         offset="0%"
         id="stop19" /><stop
         stop-color="#FFFFFF"
         stop-opacity="0"
         offset="100%"
         id="stop20" /></linearGradient><linearGradient
       x1="103.1627"
       y1="63.007332"
       x2="103.1627"
       y2="108.0084"
       id="linearGradient-12"
       gradientTransform="scale(0.57191183,1.7485213)"
       gradientUnits="userSpaceOnUse"><stop
         stop-color="#FFFFFF"
         stop-opacity="0.65"
         offset="0%"
         id="stop21" /><stop
         stop-color="#FFFFFF"
         stop-opacity="0"
         offset="100%"
         id="stop22" /></linearGradient><linearGradient
       x1="330.86072"
       y1="58.717892"
       x2="330.85519"
       y2="99.45192"
       id="linearGradient-13"
       gradientTransform="scale(0.5729452,1.7453676)"
       gradientUnits="userSpaceOnUse"><stop
         stop-color="#FFFFFF"
         stop-opacity="0.65"
         offset="0%"
         id="stop23" /><stop
         stop-color="#FFFFFF"
         stop-opacity="0"
         offset="100%"
         id="stop24" /></linearGradient><linearGradient
       x1="54.49184"
       y1="225.12328"
       x2="41.523434"
       y2="269.05215"
       id="linearGradient-14"
       gradientTransform="scale(1.0116266,0.98850707)"
       gradientUnits="userSpaceOnUse"><stop
         stop-color="#FFA63F"
         offset="0%"
         id="stop25" /><stop
         stop-color="#FFFF00"
         offset="100%"
         id="stop26" /></linearGradient><linearGradient
       x1="181.20529"
       y1="222.52386"
       x2="179.43167"
       y2="145.70831"
       id="linearGradient-15"
       gradientTransform="scale(1.0209089,0.97951932)"
       gradientUnits="userSpaceOnUse"><stop
         stop-color="#FFEED7"
         offset="0%"
         id="stop27" /><stop
         stop-color="#BDBFC2"
         offset="100%"
         id="stop28" /></linearGradient><linearGradient
       x1="180.03931"
       y1="200.21823"
       x2="211.41542"
       y2="249.23077"
       id="linearGradient-16"
       gradientTransform="scale(0.95626686,1.0457332)"
       gradientUnits="userSpaceOnUse"><stop
         stop-color="#FFA63F"
         offset="0%"
         id="stop29" /><stop
         stop-color="#FFFF00"
         offset="100%"
         id="stop30" /></linearGradient><linearGradient
       x1="224.73553"
       y1="142.26692"
       x2="218.79765"
       y2="186.40591"
       id="linearGradient-17"
       gradientTransform="scale(0.81152014,1.2322553)"
       gradientUnits="userSpaceOnUse"><stop
         stop-color="#FFFFFF"
         stop-opacity="0.65"
         offset="0%"
         id="stop31" /><stop
         stop-color="#FFFFFF"
         stop-opacity="0"
         offset="100%"
         id="stop32" /></linearGradient><linearGradient
       x1="53.035789"
       y1="186.02083"
       x2="55.101501"
       y2="244.90747"
       id="linearGradient-18"
       gradientTransform="scale(0.98730924,1.0128539)"
       gradientUnits="userSpaceOnUse"><stop
         stop-color="#FFFFFF"
         stop-opacity="0.65"
         offset="0%"
         id="stop33" /><stop
         stop-color="#FFFFFF"
         stop-opacity="0"
         offset="100%"
         id="stop34" /></linearGradient><linearGradient
       x1="172.70966"
       y1="182.05424"
       x2="175.56216"
       y2="200.62123"
       id="linearGradient-19"
       gradientTransform="scale(1.0442251,0.95764792)"
       gradientUnits="userSpaceOnUse"><stop
         stop-color="#FFFFFF"
         stop-opacity="0.65"
         offset="0%"
         id="stop35" /><stop
         stop-color="#FFFFFF"
         stop-opacity="0"
         offset="100%"
         id="stop36" /></linearGradient><linearGradient
       x1="95.570847"
       y1="77.674011"
       x2="95.991547"
       y2="119.35325"
       id="linearGradient-20"
       gradientTransform="scale(1.2107089,0.82596235)"
       gradientUnits="userSpaceOnUse"><stop
         stop-color="#FFA63F"
         offset="0%"
         id="stop37" /><stop
         stop-color="#FFFF00"
         offset="100%"
         id="stop38" /></linearGradient><linearGradient
       x1="89.542679"
       y1="78.12915"
       x2="89.431244"
       y2="98.910095"
       id="linearGradient-21"
       gradientTransform="scale(1.2523967,0.79846905)"
       gradientUnits="userSpaceOnUse"><stop
         stop-color="#FFFFFF"
         stop-opacity="0.65"
         offset="0%"
         id="stop39" /><stop
         stop-color="#FFFFFF"
         stop-opacity="0"
         offset="100%"
         id="stop40" /></linearGradient></defs><g
     inkscape:groupmode="layer"
     id="layer2"
     inkscape:label="Capa 2"><g
       transform="matrix(1.3035828,0,0,1.3035828,69.545259,85.558861)"
       id="g67"
       style="opacity:1;fill:none"><path
         d="m 235.12542,249.35863 c 0,17.35564 -52.6179,31.49727 -117.54085,31.49727 -64.922961,0 -117.54085949,-14.0498 -117.54085949,-31.49727 v 0 c 0,-17.35564 52.61789849,-31.49728 117.54085949,-31.49728 64.92295,0 117.44902,14.14164 117.54085,31.49728 z"
         fill="#000000"
         fill-opacity="0.2"
         filter="url(#filter-1)"
         id="path40" /><path
         d="M 53.212582,215.4738 C 41.825812,199.12828 39.621921,145.86758 66.160442,113.0847 79.29196,97.381975 82.689625,86.454348 83.699742,71.669912 84.434372,54.865243 71.853827,4.8185507 119.23749,1.0535701 c 48.02645,-3.8568093 45.36342,43.5268479 45.08793,68.5961089 -0.18366,21.120623 15.51907,33.150191 26.35487,49.679381 19.92684,30.3035 18.27393,82.46225 -3.76498,110.74552 -27.91596,35.35409 -51.79144,20.01868 -67.67782,21.30428 -29.752534,1.74475 -30.762651,17.5393 -66.024908,-35.90506 z"
         fill="#000000"
         id="path41" /><path
         d="m 169.10052,122.45123 c 8.26459,7.62179 29.6607,41.69028 -4.22413,62.99456 -11.93774,7.43813 10.65214,35.7214 21.48794,22.03891 19.19222,-24.61012 6.97899,-63.91284 -4.59144,-77.96265 -7.71361,-9.91751 -19.65136,-13.77432 -12.67237,-7.07082 z"
         fill="url(#linearGradient-2)"
         id="path42"
         style="fill:url(#linearGradient-2)" /><path
         d="m 166.8048,117.8598 c 13.59066,11.01945 38.29261,49.58754 2.20389,74.74863 -11.84591,7.80545 10.46848,32.5074 23.04903,19.92685 43.61868,-43.89416 -1.10195,-94.30817 -16.52919,-111.66381 -13.77431,-15.151752 -25.98754,3.48949 -8.72373,16.98833 z"
         stroke="#000000"
         stroke-width="0.9773"
         fill="#000000"
         id="path43" /><path
         d="M 147.24527,25.020885 C 146.78612,37.60143 132.91997,48.529057 116.29896,49.539173 99.677952,50.54929 86.638263,40.999095 87.097407,28.418551 v 0 C 87.556551,15.838006 101.4227,4.9103795 118.04371,3.9002627 c 16.62101,-0.9182879 29.6607,8.5400783 29.20156,21.1206223 z"
         fill="url(#linearGradient-3)"
         id="path44"
         style="fill:url(#linearGradient-3)" /><path
         d="m 107.4834,54.957072 c 0.45914,8.172763 -3.39767,15.059922 -8.723736,15.335409 -5.32607,0.275486 -10.009339,-6.060701 -10.468483,-14.233463 v 0 c -0.459144,-8.172763 3.397666,-15.059923 8.723736,-15.335409 5.326073,-0.275486 10.009333,6.0607 10.468483,14.233463 z"
         fill="url(#linearGradient-4)"
         id="path45"
         style="fill:url(#linearGradient-4)" /><path
         d="m 117.12542,55.599874 c 0.18366,9.458365 6.33619,16.988326 13.68249,16.804669 7.34631,-0.183658 13.13152,-7.989105 12.94786,-17.5393 v 0 c -0.18366,-9.458366 -6.33618,-16.988327 -13.68249,-16.804669 -7.3463,0.183658 -13.22334,8.080934 -12.94786,17.5393 z"
         fill="url(#linearGradient-5)"
         id="path46"
         style="fill:url(#linearGradient-5)" /><path
         d="m 123.18612,57.711936 c -0.0918,5.234241 2.47938,9.458366 5.87705,9.458366 3.30583,0 6.15252,-4.224125 6.24435,-9.366537 v 0 c 0.0918,-5.234242 -2.47937,-9.458366 -5.87704,-9.458366 -3.39766,0 -6.15253,4.224124 -6.24436,9.366537 z"
         fill="#000000"
         id="path47" /><path
         d="m 101.97367,57.803765 c 0.45915,4.315953 -1.19377,7.989105 -3.581321,8.35642 C 96.0048,66.435671 93.70908,63.221663 93.249936,58.90571 v 0 c -0.459144,-4.315953 1.193774,-7.989105 3.581323,-8.35642 2.387549,-0.275486 4.683271,2.938521 5.142411,7.254475 z"
         fill="#000000"
         id="path48" /><path
         d="m 124.56355,54.773414 c -0.27548,2.938522 1.10195,5.326071 3.03036,5.509728 1.9284,0.183658 3.76498,-2.112062 4.04046,-4.958755 v 0 c 0.27549,-2.938521 -1.10194,-5.32607 -3.03035,-5.509727 -1.9284,-0.183658 -3.76498,2.112062 -4.04047,4.958754 z"
         fill="url(#linearGradient-6)"
         id="path49"
         style="fill:url(#linearGradient-6)" /><path
         d="m 99.953438,55.508045 c 0.275492,2.387548 -0.73463,4.499611 -2.203891,4.683268 -1.469261,0.183658 -2.846692,-1.652918 -3.122179,-4.132295 v 0 c -0.275486,-2.387549 0.73463,-4.499611 2.203891,-4.683269 1.469261,-0.183658 2.846693,1.744747 3.122179,4.132296 z"
         fill="url(#linearGradient-7)"
         id="path50"
         style="fill:url(#linearGradient-7)" /><path
         d="m 71.027368,145.68392 c 6.519844,-14.78444 20.385992,-40.77198 20.661479,-60.88249 0,-15.97821 47.842803,-19.835019 51.699613,-3.856809 3.85681,15.97821 13.59066,39.853699 19.83502,51.424119 6.24435,11.4786 24.33463,48.11829 5.05058,80.07471 -17.35564,28.28327 -69.97354,50.6895 -98.073151,-3.85681 -9.550195,-18.91673 -7.805447,-42.33307 0.826459,-62.90272 z"
         fill="url(#linearGradient-8)"
         id="path51"
         style="fill:url(#linearGradient-8)" /><path
         d="m 65.150325,134.66446 c -5.601556,10.56032 -17.171984,38.29261 11.111284,53.44436 30.395331,16.16187 30.303501,49.31206 -6.244358,33.51751 -33.425681,-14.23346 -18.641245,-71.90194 -9.274708,-85.67626 6.060701,-9.64202 15.24358,-21.48794 4.407782,-1.28561 z"
         fill="url(#linearGradient-9)"
         id="path52"
         style="fill:url(#linearGradient-9)" /><path
         d="m 69.925423,122.72672 c -8.907393,14.50895 -30.211674,48.66926 -1.652919,66.48405 38.384436,23.6 27.548638,47.10817 -7.529961,25.89572 -49.403891,-29.56887 -5.968871,-89.25759 13.774319,-112.03113 22.589884,-25.528405 4.315954,4.68327 -4.591439,19.65136 z"
         stroke="#000000"
         stroke-width="1.25"
         fill="#000000"
         id="path53" /><path
         d="m 156.42815,151.28548 c 0,16.16186 -15.51907,37.09883 -42.14942,36.91517 -27.456809,0.18366 -39.119066,-20.75331 -39.119066,-36.91517 0,-16.16187 18.182101,-29.29339 40.588326,-29.29339 22.49805,0.0918 40.68016,13.13152 40.68016,29.29339 z"
         fill="url(#linearGradient-10)"
         id="path54"
         style="fill:url(#linearGradient-10)" /><path
         d="m 141.9192,100.50415 c -0.27549,16.71284 -11.20312,20.66148 -24.97743,20.66148 -13.77432,0 -23.783663,-2.47937 -24.977437,-20.66148 0,-11.386767 11.203117,-17.99844 24.977437,-17.99844 13.77431,-0.09183 24.97743,6.519845 24.97743,17.99844 z"
         fill="url(#linearGradient-11)"
         id="path55"
         style="fill:url(#linearGradient-11)" /><path
         d="m 58.630481,126.21622 c 8.999222,-13.68249 28.007782,-34.711288 3.581323,2.93852 -19.83502,31.03813 -7.346304,50.96498 -0.918288,56.47471 18.549416,16.52918 17.814786,27.64046 3.214008,18.91673 -31.313619,-18.64125 -24.793775,-50.0467 -5.877043,-78.32996 z"
         fill="url(#linearGradient-12)"
         id="path56"
         style="fill:url(#linearGradient-12)" /><path
         d="m 188.93554,131.81777 c -7.80545,-16.07004 -32.59922,-56.842021 1.19377,-9.45836 30.76265,42.88404 9.18288,72.7284 5.32607,75.66692 -3.85681,2.93852 -16.80467,8.9074 -13.03969,-1.46926 3.85681,-10.37665 22.9572,-30.02801 6.51985,-64.7393 z"
         fill="url(#linearGradient-13)"
         id="path57"
         style="fill:url(#linearGradient-13)" /><path
         d="M 51.83515,258.54151 C 31.2655,247.61388 1.4211424,260.65357 12.25694,231.0847 c 2.203891,-6.7035 -3.2140077,-16.80467 0.275487,-23.32452 4.132295,-7.9891 13.039688,-6.24435 18.365758,-11.57042 5.234241,-5.50973 8.540078,-15.05992 18.365759,-13.59067 9.733852,1.46927 16.253696,13.40701 23.049027,28.09962 5.050584,10.46848 22.86537,25.25291 21.671595,37.007 -1.46926,17.99844 -21.947081,21.39611 -42.149416,10.8358 z"
         stroke="#e68c3f"
         stroke-width="6.25"
         fill="url(#linearGradient-14)"
         id="path58"
         style="fill:url(#linearGradient-14)" /><path
         d="m 201.60791,189.11894 c -3.12218,5.87704 -16.16187,15.33541 -24.8856,12.85603 -8.81556,-2.38755 -12.85603,-15.79455 -11.11128,-25.98755 1.65291,-11.38677 11.11128,-12.02957 23.04902,-6.33618 12.85603,6.33618 16.71284,11.66225 12.94786,19.4677 z"
         fill="url(#linearGradient-15)"
         id="path59"
         style="fill:url(#linearGradient-15)" /><path
         d="m 194.44527,253.49092 c 15.05992,-18.27393 48.57743,-14.50895 25.98755,-39.57821 -4.7751,-5.4179 -3.30584,-16.98832 -9.18288,-21.94708 -6.88716,-6.0607 -14.50895,-1.10194 -21.48794,-4.22412 -6.97899,-3.39767 -14.32529,-9.91751 -22.86537,-5.32607 -8.54008,4.68327 -9.45837,16.80467 -10.28483,32.78288 -0.73463,11.4786 -11.20311,30.67081 -5.60155,41.23113 8.08093,16.34552 29.10972,14.14163 43.43502,-2.93853 z"
         stroke="#e68c3f"
         stroke-width="6.2507"
         fill="url(#linearGradient-16)"
         id="path60"
         style="fill:url(#linearGradient-16)" /><path
         d="m 187.92542,229.06447 c 23.32452,-34.4358 5.96887,-34.16032 0.0918,-36.82335 -5.87704,-2.75487 -12.02957,-8.17276 -18.91673,-4.40778 -6.88716,3.85681 -7.25448,13.77432 -7.43813,26.814 -0.27549,9.36654 -8.08094,25.06926 -3.39767,33.793 5.69339,10.193 19.46771,-4.59144 29.6607,-19.37587 z"
         fill="url(#linearGradient-17)"
         id="path61"
         style="fill:url(#linearGradient-17)" /><path
         d="m 47.060053,234.02322 c -34.894942,-22.58988 -18.549416,-30.3035 -13.315175,-33.88483 6.336187,-4.59144 6.428015,-13.407 14.233463,-12.58054 7.805447,0.82646 12.396887,10.46848 17.631128,22.40623 3.85681,8.54007 17.263814,19.92684 16.253697,29.75252 -1.285603,11.57043 -19.743191,3.94864 -34.803113,-5.69338 z"
         fill="url(#linearGradient-18)"
         id="path62"
         style="fill:url(#linearGradient-18)" /><path
         d="m 199.58768,188.84345 c -2.75486,4.7751 -13.95798,12.30506 -21.39611,10.28483 -7.62179,-1.92841 -11.11128,-12.67238 -9.55019,-20.75331 1.37743,-9.18288 9.55019,-9.64202 19.83501,-5.05058 10.92763,4.95875 14.3253,9.18288 11.11129,15.51906 z"
         fill="#000000"
         id="path63" /><path
         d="m 192.05772,186.18042 c -1.74475,3.30583 -9.09105,8.54008 -14.23347,7.16264 -5.14241,-1.37743 -7.71361,-8.81556 -6.88715,-14.41712 0.73463,-6.33618 6.24435,-6.7035 13.22334,-3.58132 7.52996,3.48949 9.91751,6.42802 7.89728,10.8358 z"
         fill="url(#linearGradient-19)"
         id="path64"
         style="fill:url(#linearGradient-19)" /><path
         d="m 97.106746,66.343842 c 3.673154,-3.397665 12.580544,-13.774319 29.477044,-2.938521 3.12218,2.020234 5.69338,2.203891 11.66225,4.775097 12.02958,4.958755 6.33619,16.896498 -6.51984,20.936965 -5.50973,1.744747 -10.46848,8.448249 -20.38599,7.805448 C 102.80013,96.463687 100.59624,90.86213 95.361998,87.83178 86.08729,82.597539 84.709858,75.526722 89.760442,71.761741 c 5.050584,-3.76498 6.978988,-5.142412 7.346304,-5.417899 z"
         stroke="#e68c3f"
         stroke-width="3.75"
         fill="url(#linearGradient-20)"
         id="path65"
         style="fill:url(#linearGradient-20)" /><path
         d="m 138.4297,75.985866 c -5.05058,0.275486 -15.97821,11.203113 -27.45681,11.203113 -11.478596,0 -18.365755,-10.65214 -20.110503,-10.65214"
         stroke="#e68c3f"
         stroke-width="2.5"
         id="path66" /><path
         d="m 102.80013,65.425555 c 1.83658,-1.652919 7.62179,-6.15253 15.24358,-1.56109 1.65292,0.918288 3.30584,1.928405 5.69339,3.305837 4.86692,2.846692 2.47937,6.978988 -3.39767,9.550194 -2.66303,1.101946 -7.07082,3.489494 -10.37665,3.305837 -3.67315,-0.367315 -6.15253,-2.754864 -8.54008,-4.315953 -4.499612,-2.938522 -4.224126,-5.417899 -2.112063,-7.346304 1.561093,-1.469261 3.305833,-2.846693 3.489493,-2.938521 z"
         fill="url(#linearGradient-21)"
         id="path67"
         style="fill:url(#linearGradient-21)" /></g></g><g
     id="g1"
     transform="matrix(2.7899058,0.09179333,-0.09179333,2.7899058,33.497831,-182.09336)"><g
       id="line-supplement"
       transform="matrix(2.5923959,0,0,2.5923959,13.968721,44.30095)"><rect
         x="33.624802"
         y="20.0448"
         width="4.6535001"
         height="32.1987"
         transform="rotate(44.93,35.952,36.144)"
         id="rect1" /></g><g
       id="color"
       transform="matrix(2.5923959,0,0,2.5923959,13.968721,44.30095)"><rect
         x="33.624802"
         y="20.0448"
         width="4.6535001"
         height="32.1987"
         transform="rotate(44.93,35.952,36.144)"
         fill="#3f3f3f"
         id="rect2" /><circle
         cx="47.574902"
         cy="10.9583"
         r="2"
         fill="#fcea2b"
         id="circle2" /><circle
         cx="56"
         cy="28.310101"
         r="2"
         fill="#fcea2b"
         id="circle3" /></g><g
       id="line"
       transform="matrix(2.5923959,0,0,2.5923959,13.968721,44.30095)"><rect
         x="34.262798"
         y="9.2770996"
         rx="0.43979999"
         width="3.3850999"
         height="53.524899"
         transform="rotate(44.93,35.955,36.04)"
         fill="none"
         stroke="#000000"
         stroke-miterlimit="10"
         stroke-width="2"
         id="rect3" /><line
         x1="45.306198"
         x2="47.634602"
         y1="23.873199"
         y2="26.0854"
         fill="none"
         stroke="#000000"
         stroke-miterlimit="10"
         stroke-width="2"
         id="line3" /><line
         x1="23.441299"
         x2="25.8379"
         y1="46.193699"
         y2="48.5844"
         fill="none"
         stroke="#000000"
         stroke-miterlimit="10"
         stroke-width="2"
         id="line4" /><line
         x1="47.574902"
         x2="47.574902"
         y1="8.9582996"
         y2="7.2929001"
         fill="none"
         stroke="#000000"
         stroke-linecap="round"
         stroke-miterlimit="10"
         stroke-width="2"
         id="line5" /><line
         x1="47.574902"
         x2="47.574902"
         y1="14.6237"
         y2="12.9583"
         fill="none"
         stroke="#000000"
         stroke-linecap="round"
         stroke-miterlimit="10"
         stroke-width="2"
         id="line6" /><line
         x1="45.574902"
         x2="43.909599"
         y1="10.9583"
         y2="10.9583"
         fill="none"
         stroke="#000000"
         stroke-linecap="round"
         stroke-miterlimit="10"
         stroke-width="2"
         id="line7" /><line
         x1="51.240299"
         x2="49.574902"
         y1="10.9583"
         y2="10.9583"
         fill="none"
         stroke="#000000"
         stroke-linecap="round"
         stroke-miterlimit="10"
         stroke-width="2"
         id="line8" /><line
         x1="56"
         x2="56"
         y1="26.310101"
         y2="24.644699"
         fill="none"
         stroke="#000000"
         stroke-linecap="round"
         stroke-miterlimit="10"
         stroke-width="2"
         id="line9" /><line
         x1="56"
         x2="56"
         y1="31.9755"
         y2="30.310101"
         fill="none"
         stroke="#000000"
         stroke-linecap="round"
         stroke-miterlimit="10"
         stroke-width="2"
         id="line10" /><line
         x1="54"
         x2="52.334599"
         y1="28.310101"
         y2="28.310101"
         fill="none"
         stroke="#000000"
         stroke-linecap="round"
         stroke-miterlimit="10"
         stroke-width="2"
         id="line11" /><line
         x1="59.665401"
         x2="58"
         y1="28.310101"
         y2="28.310101"
         fill="none"
         stroke="#000000"
         stroke-linecap="round"
         stroke-miterlimit="10"
         stroke-width="2"
         id="line12" /></g></g><path
     style="fill:#ffffff;stroke:#c65151;stroke-width:0.634449"
     d="m 183.80162,339.87907 c -3.97671,-4.07252 -4.89339,-2.81396 17.01404,-23.35968 4.87828,-4.57506 9.86749,-9.14309 11.08713,-10.15118 1.21964,-1.00809 3.33344,-3.04628 4.69733,-4.5293 1.36388,-1.48302 2.69809,-2.69641 2.96489,-2.69641 0.26681,0 1.67371,-1.142 3.12644,-2.53779 1.45273,-1.39579 3.16714,-2.5378 3.80978,-2.5378 1.4626,0 4.50924,2.52043 5.6713,4.69175 0.97698,1.82551 1.75733,0.92248 -12.11914,14.02449 -2.95658,2.79157 -9.63944,9.12347 -14.8508,14.07089 -14.67278,13.92964 -16.36136,15.39575 -17.75289,15.41396 -0.71431,0.009 -2.35595,-1.06566 -3.64808,-2.38893 z"
     id="path18" /></svg>
